<?xml version="1.0" encoding="UTF-8"?>
<svg xmlns="http://www.w3.org/2000/svg" xmlns:xlink="http://www.w3.org/1999/xlink" version="1.1" viewBox="0 0 194.2 194.2">
  <!-- Generator: Adobe Illustrator 29.0.0, SVG Export Plug-In . SVG Version: 2.1.0 Build 186)  -->
  <defs>
    <style>
      .st0 {
        font-size: 24.7px;
      }

      .st0, .st1, .st2, .st3 {
        fill: #df1e26;
        font-family: Galvji, Galvji;
      }

      .st1 {
        font-size: 26.7px;
      }

      .st4 {
        fill: #f9ed32;
      }

      .st4, .st5, .st6, .st7, .st8, .st9, .st10 {
        stroke-miterlimit: 10;
      }

      .st4, .st6, .st8, .st9, .st10 {
        stroke: #231f20;
        stroke-width: .3px;
      }

      .st11 {
        opacity: .7;
      }

      .st11, .st5, .st7 {
        fill: #fff;
      }

      .st5 {
        stroke: #ed1c24;
        stroke-width: 2.3px;
      }

      .st12 {
        fill: #231f20;
        font-family: MyriadPro-Regular, 'Myriad Pro';
        font-size: 12px;
      }

      .st6 {
        fill: #808285;
      }

      .st7 {
        stroke: #808285;
        stroke-width: .8px;
      }

      .st8 {
        fill: #21409a;
      }

      .st9 {
        fill: #00a651;
      }

      .st10 {
        fill: #7f3f98;
      }

      .st2 {
        font-size: 7.6px;
      }

      .st3 {
        font-size: 3.5px;
      }

      .st13 {
        display: none;
      }

      .st14 {
        fill: #e55941;
      }
    </style>
  </defs>
  <g id="Layer_2" class="st13">
    <g id="Z4bjSY">
      <image id="Z4bjSY1" data-name="Z4bjSY" width="258" height="300" transform="translate(17.7 6.4) scale(.6)" xlink:href="LogoAltColoursweb copy-1.png"/>
    </g>
  </g>
  <g id="Layer_3">
    <path class="st7" d="M194.2,189.6v-4.6c-3,0-5.4-2.1-5.4-4.6s2.4-4.6,5.4-4.6v-4.6c-3,0-5.4-2.1-5.4-4.6s2.4-4.6,5.4-4.6v-4.6c-3,0-5.4-2.1-5.4-4.6s2.4-4.6,5.4-4.6v-4.6c-3,0-5.4-2.1-5.4-4.6s2.4-4.6,5.4-4.6v-4.6c-3,0-5.4-2.1-5.4-4.6s2.4-4.6,5.4-4.6v-4.6c-3,0-5.4-2.1-5.4-4.6s2.4-4.6,5.4-4.6v-4.6c-3,0-5.4-2.1-5.4-4.6s2.4-4.6,5.4-4.6v-4.6c-3,0-5.4-2.1-5.4-4.6s2.4-4.6,5.4-4.6v-4.6c-3,0-5.4-2.1-5.4-4.6s2.4-4.6,5.4-4.6v-4.6c-3,0-5.4-2.1-5.4-4.6s2.4-4.6,5.4-4.6v-4.6c-3,0-5.4-2.1-5.4-4.6s2.4-4.6,5.4-4.6v-4.6c-3,0-5.4-2.1-5.4-4.6s2.4-4.6,5.4-4.6v-4.6c-3,0-5.4-2.1-5.4-4.6s2.4-4.6,5.4-4.6v-4.6c-1.4,0-2.8-.5-3.8-1.4s-1.6-2.1-1.6-3.3h-5.4c0,2.6-2.4,4.6-5.4,4.6s-5.4-2.1-5.4-4.6h-5.4c0,2.6-2.4,4.6-5.4,4.6s-5.4-2.1-5.4-4.6h-5.4c0,2.6-2.4,4.6-5.4,4.6s-5.4-2.1-5.4-4.6h-5.4c0,2.6-2.4,4.6-5.4,4.6s-5.4-2.1-5.4-4.6h-5.4c0,2.6-2.4,4.6-5.4,4.6s-5.4-2.1-5.4-4.6h-5.4c0,2.6-2.4,4.6-5.4,4.6s-5.4-2.1-5.4-4.6h-5.4c0,2.6-2.4,4.6-5.4,4.6s-5.4-2.1-5.4-4.6h-5.4c0,2.6-2.4,4.6-5.4,4.6s-5.4-2.1-5.4-4.6h-5.4c0,2.6-2.4,4.6-5.4,4.6s-5.4-2.1-5.4-4.6h-5.4c0,2.6-2.4,4.6-5.4,4.6s-5.4-2.1-5.4-4.6h-5.4c0,2.6-2.4,4.6-5.4,4.6S10.8,3.3,10.8.7h-5.4c0,1.2-.6,2.4-1.6,3.3s-2.4,1.4-3.8,1.4v4.6c3,0,5.4,2.1,5.4,4.6s-2.4,4.6-5.4,4.6v4.6c3,0,5.4,2.1,5.4,4.6s-2.4,4.6-5.4,4.6v4.6c3,0,5.4,2.1,5.4,4.6s-2.4,4.6-5.4,4.6v4.6c3,0,5.4,2.1,5.4,4.6s-2.4,4.6-5.4,4.6v4.6c3,0,5.4,2.1,5.4,4.6s-2.4,4.6-5.4,4.6v4.6c3,0,5.4,2.1,5.4,4.6s-2.4,4.6-5.4,4.6v4.6c3,0,5.4,2.1,5.4,4.6s-2.4,4.6-5.4,4.6v4.6c3,0,5.4,2.1,5.4,4.6s-2.4,4.6-5.4,4.6v4.6c3,0,5.4,2.1,5.4,4.6s-2.4,4.6-5.4,4.6v4.6c3,0,5.4,2.1,5.4,4.6s-2.4,4.6-5.4,4.6v4.6c3,0,5.4,2.1,5.4,4.6s-2.4,4.6-5.4,4.6v4.6c3,0,5.4,2.1,5.4,4.6s-2.4,4.6-5.4,4.6v4.6c3,0,5.4,2.1,5.4,4.6s-2.4,4.6-5.4,4.6v4.6c1.4,0,2.8.5,3.8,1.4s1.6,2.1,1.6,3.3h5.4c0-2.6,2.4-4.6,5.4-4.6s5.4,2.1,5.4,4.6h5.4c0-2.6,2.4-4.6,5.4-4.6s5.4,2.1,5.4,4.6h5.4c0-2.6,2.4-4.6,5.4-4.6s5.4,2.1,5.4,4.6h5.4c0-2.6,2.4-4.6,5.4-4.6s5.4,2.1,5.4,4.6h5.4c0-2.6,2.4-4.6,5.4-4.6s5.4,2.1,5.4,4.6h5.4c0-2.6,2.4-4.6,5.4-4.6s5.4,2.1,5.4,4.6h5.4c0-2.6,2.4-4.6,5.4-4.6s5.4,2.1,5.4,4.6h5.4c0-2.6,2.4-4.6,5.4-4.6s5.4,2.1,5.4,4.6h5.4c0-2.6,2.4-4.6,5.4-4.6s5.4,2.1,5.4,4.6h5.4c0-2.6,2.4-4.6,5.4-4.6s5.4,2.1,5.4,4.6h5.4c0-2.6,2.4-4.6,5.4-4.6s5.4,2.1,5.4,4.6h5.4c0-1.2.6-2.4,1.6-3.3s2.4-1.4,3.8-1.4Z"/>
  </g>
  <g id="Layer_1">
    <path class="st5" d="M176.4,182.3H17.8V12.6h158.7v169.7Z"/>
  </g>
  <g id="Mycolic_Acids">
    <g>
      <circle class="st14" cx="96.7" cy="45.6" r="2.2"/>
      <circle class="st14" cx="96.7" cy="50.9" r="2.2"/>
      <circle class="st14" cx="96.7" cy="56.3" r="2.2"/>
      <circle class="st14" cx="102.1" cy="56.4" r="2.2"/>
      <circle class="st14" cx="37.6" cy="99" r="1.2"/>
      <circle class="st14" cx="43.1" cy="99" r="1.2"/>
      <circle class="st14" cx="64.5" cy="99" r="1.4"/>
      <circle class="st14" cx="69.9" cy="99" r="1.4"/>
      <circle class="st14" cx="75.3" cy="99" r="1.5"/>
      <circle class="st14" cx="80.6" cy="99" r="1.5"/>
      <circle class="st14" cx="96.7" cy="99" r="1.6"/>
      <circle class="st14" cx="107.4" cy="99" r="1.7"/>
      <circle class="st14" cx="112.8" cy="99" r="1.8"/>
      <circle class="st14" cx="118.2" cy="99" r="1.8"/>
      <circle class="st14" cx="128.9" cy="99" r="1.9"/>
      <circle class="st14" cx="144.9" cy="99" r="2"/>
      <circle class="st14" cx="150.2" cy="99" r="2.1"/>
      <circle class="st14" cx="155.6" cy="99" r="2.1"/>
      <circle class="st14" cx="64.5" cy="125.9" r="1.1"/>
      <circle class="st14" cx="102.1" cy="125.9" r="1.5"/>
      <circle class="st14" cx="107.4" cy="125.9" r="1.5"/>
      <circle class="st14" cx="123.5" cy="125.9" r="1.7"/>
      <circle class="st14" cx="128.9" cy="125.9" r="1.7"/>
      <circle class="st14" cx="43.1" cy="83.1" r="1.4"/>
      <circle class="st14" cx="48.5" cy="83.1" r="1.4"/>
      <circle class="st14" cx="53.8" cy="83.1" r="1.4"/>
      <circle class="st14" cx="80.6" cy="56.3" r="2"/>
      <circle class="st14" cx="80.6" cy="83.1" r="1.7"/>
      <circle class="st14" cx="86" cy="83.1" r="1.7"/>
      <circle class="st14" cx="96.7" cy="83.1" r="1.8"/>
      <circle class="st14" cx="102.1" cy="83.1" r="1.8"/>
      <circle class="st14" cx="112.8" cy="56.4" r="2.3"/>
      <circle class="st14" cx="80.6" cy="61.6" r="1.9"/>
      <circle class="st14" cx="86" cy="61.7" r="2"/>
      <circle class="st14" cx="96.7" cy="61.7" r="2.1"/>
      <circle class="st14" cx="102.1" cy="61.7" r="2.1"/>
      <circle class="st14" cx="112.8" cy="61.8" r="2.3"/>
      <circle class="st14" cx="80.6" cy="67" r="1.9"/>
      <circle class="st14" cx="86" cy="67" r="1.9"/>
      <circle class="st14" cx="96.7" cy="67.1" r="2"/>
      <circle class="st14" cx="102.1" cy="67.1" r="2.1"/>
      <circle class="st14" cx="112.8" cy="67.1" r="2.2"/>
      <circle class="st14" cx="80.6" cy="72.4" r="1.8"/>
      <circle class="st14" cx="86" cy="72.4" r="1.8"/>
      <circle class="st14" cx="96.7" cy="72.4" r="1.9"/>
      <circle class="st14" cx="102.1" cy="72.4" r="2"/>
      <circle class="st14" cx="112.8" cy="72.5" r="2.1"/>
      <circle class="st14" cx="80.6" cy="77.8" r="1.7"/>
      <circle class="st14" cx="86" cy="77.8" r="1.8"/>
      <circle class="st14" cx="96.7" cy="77.8" r="1.9"/>
      <circle class="st14" cx="102.1" cy="77.8" r="1.9"/>
      <circle class="st14" cx="112.8" cy="77.8" r="2"/>
      <circle class="st14" cx="112.8" cy="83.1" r="1.9"/>
      <circle class="st14" cx="128.9" cy="83.1" r="2"/>
      <circle class="st14" cx="139.6" cy="83.1" r="2.1"/>
      <circle class="st14" cx="43.1" cy="88.5" r="1.2"/>
      <circle class="st14" cx="53.8" cy="88.5" r="1.3"/>
      <circle class="st14" cx="64.5" cy="88.5" r="1.4"/>
      <circle class="st14" cx="69.9" cy="88.5" r="1.4"/>
      <circle class="st14" cx="80.6" cy="88.5" r="1.5"/>
      <circle class="st14" cx="86" cy="88.5" r="1.6"/>
      <circle class="st14" cx="96.7" cy="88.5" r="1.7"/>
      <circle class="st14" cx="102.1" cy="88.5" r="1.7"/>
      <circle class="st14" cx="112.8" cy="88.5" r="1.8"/>
      <circle class="st14" cx="128.9" cy="88.5" r="1.9"/>
      <circle class="st14" cx="139.6" cy="88.5" r="2"/>
      <circle class="st14" cx="150.2" cy="88.5" r="2.1"/>
      <circle class="st14" cx="53.8" cy="93.9" r="1.3"/>
      <circle class="st14" cx="64.5" cy="93.9" r="1.4"/>
      <circle class="st14" cx="69.9" cy="93.9" r="1.5"/>
      <circle class="st14" cx="75.3" cy="93.9" r="1.5"/>
      <circle class="st14" cx="86" cy="93.9" r="1.6"/>
      <circle class="st14" cx="96.7" cy="93.9" r="1.7"/>
      <circle class="st14" cx="102.1" cy="93.9" r="1.7"/>
      <circle class="st14" cx="112.8" cy="93.9" r="1.8"/>
      <circle class="st14" cx="118.2" cy="93.9" r="1.9"/>
      <circle class="st14" cx="128.9" cy="93.9" r="2"/>
      <circle class="st14" cx="139.6" cy="93.9" r="2"/>
      <circle class="st14" cx="150.2" cy="93.9" r="2.1"/>
      <circle class="st14" cx="43.1" cy="104.5" r="1.2"/>
      <circle class="st14" cx="48.5" cy="104.5" r="1.2"/>
      <circle class="st14" cx="53.8" cy="104.5" r="1.2"/>
      <circle class="st14" cx="64.5" cy="104.5" r="1.3"/>
      <circle class="st14" cx="69.9" cy="104.5" r="1.4"/>
      <circle class="st14" cx="75.3" cy="104.5" r="1.4"/>
      <circle class="st14" cx="80.6" cy="104.5" r="1.5"/>
      <circle class="st14" cx="86" cy="104.5" r="1.5"/>
      <circle class="st14" cx="96.7" cy="104.5" r="1.6"/>
      <circle class="st14" cx="107.4" cy="104.5" r="1.7"/>
      <circle class="st14" cx="112.8" cy="104.5" r="1.7"/>
      <circle class="st14" cx="139.6" cy="104.5" r="2"/>
      <circle class="st14" cx="144.9" cy="104.5" r="2"/>
      <circle class="st14" cx="150.2" cy="104.5" r="2"/>
      <circle class="st14" cx="48.5" cy="109.8" r="1.1"/>
      <circle class="st14" cx="53.8" cy="109.8" r="1.2"/>
      <circle class="st14" cx="59.2" cy="109.8" r="1.2"/>
      <circle class="st14" cx="69.9" cy="109.8" r="1.3"/>
      <circle class="st14" cx="75.3" cy="109.8" r="1.4"/>
      <circle class="st14" cx="80.6" cy="109.8" r="1.4"/>
      <circle class="st14" cx="86" cy="109.8" r="1.4"/>
      <circle class="st14" cx="91.3" cy="109.8" r="1.5"/>
      <circle class="st14" cx="102.1" cy="109.8" r="1.6"/>
      <circle class="st14" cx="107.4" cy="109.8" r="1.6"/>
      <circle class="st14" cx="112.8" cy="109.8" r="1.7"/>
      <circle class="st14" cx="118.2" cy="109.8" r="1.7"/>
      <circle class="st14" cx="123.5" cy="109.8" r="1.8"/>
      <circle class="st14" cx="134.2" cy="109.8" r="1.8"/>
      <circle class="st14" cx="139.6" cy="109.8" r="1.9"/>
      <circle class="st14" cx="144.9" cy="109.8" r="1.9"/>
      <circle class="st14" cx="53.8" cy="115.1" r="1.1"/>
      <circle class="st14" cx="59.2" cy="115.1" r="1.1"/>
      <circle class="st14" cx="75.3" cy="115.1" r="1.3"/>
      <circle class="st14" cx="80.6" cy="115.1" r="1.3"/>
      <circle class="st14" cx="86" cy="115.1" r="1.4"/>
      <circle class="st14" cx="91.3" cy="115.1" r="1.4"/>
      <circle class="st14" cx="102.1" cy="115.1" r="1.5"/>
      <circle class="st14" cx="107.4" cy="115.1" r="1.6"/>
      <circle class="st14" cx="112.8" cy="115.1" r="1.6"/>
      <circle class="st14" cx="118.2" cy="115.1" r="1.7"/>
      <circle class="st14" cx="123.5" cy="115.1" r="1.7"/>
      <circle class="st14" cx="134.2" cy="115.1" r="1.8"/>
      <circle class="st14" cx="139.6" cy="115.1" r="1.9"/>
      <circle class="st14" cx="59.2" cy="120.4" r="1.2"/>
      <circle class="st14" cx="64.5" cy="120.4" r="1.2"/>
      <circle class="st14" cx="75.3" cy="120.4" r="1.3"/>
      <circle class="st14" cx="80.6" cy="120.4" r="1.4"/>
      <circle class="st14" cx="86" cy="120.4" r="1.4"/>
      <circle class="st14" cx="91.3" cy="120.4" r="1.5"/>
      <circle class="st14" cx="102.1" cy="120.4" r="1.6"/>
      <circle class="st14" cx="107.4" cy="120.4" r="1.6"/>
      <circle class="st14" cx="134.2" cy="120.4" r="1.9"/>
      <circle class="st14" cx="53.8" cy="136.6" r="1"/>
      <circle class="st14" cx="59.2" cy="136.6" r="1.1"/>
      <circle class="st14" cx="64.5" cy="136.6" r="1.1"/>
      <circle class="st14" cx="80.6" cy="136.5" r="1.3"/>
      <circle class="st14" cx="86" cy="136.5" r="1.3"/>
      <circle class="st14" cx="96.7" cy="136.5" r="1.4"/>
      <circle class="st14" cx="107.4" cy="136.5" r="1.5"/>
      <circle class="st14" cx="112.8" cy="136.5" r="1.6"/>
      <circle class="st14" cx="118.2" cy="136.5" r="1.6"/>
      <circle class="st14" cx="123.5" cy="136.5" r="1.7"/>
      <circle class="st14" cx="128.9" cy="136.4" r="1.7"/>
      <circle class="st14" cx="134.2" cy="136.4" r="1.8"/>
      <circle class="st14" cx="139.6" cy="136.4" r="1.8"/>
      <circle class="st14" cx="96.7" cy="141.9" r="1.3"/>
      <circle class="st14" cx="96.7" cy="147.2" r="1.3"/>
      <circle class="st14" cx="96.7" cy="152.6" r="1.3"/>
      <circle class="st14" cx="96.7" cy="157.9" r="1.3"/>
      <circle class="st14" cx="96.7" cy="163.2" r="1.2"/>
      <circle class="st14" cx="96.7" cy="168.5" r="1.2"/>
      <text/>
      <circle class="st14" cx="118.2" cy="104.4" r="1.8"/>
      <circle class="st14" cx="128.9" cy="104.4" r="1.9"/>
      <circle class="st14" cx="64.5" cy="131.1" r="1.1"/>
      <circle class="st14" cx="75.3" cy="131.1" r="1.2"/>
      <circle class="st14" cx="112.8" cy="120.3" r="1.7"/>
      <polygon class="st9" points="59.2 97.6 58.8 98.5 57.8 98.6 58.5 99.3 58.4 100.3 59.2 99.8 60 100.3 59.9 99.3 60.5 98.6 59.6 98.5 59.2 97.6"/>
      <polygon class="st9" points="48.5 97.7 48.1 98.5 47.2 98.7 47.9 99.3 47.7 100.2 48.5 99.8 49.3 100.2 49.1 99.3 49.7 98.7 48.9 98.5 48.5 97.7"/>
      <polygon class="st9" points="48.5 92.6 48.1 93.4 47.2 93.6 47.8 94.3 47.7 95.2 48.5 94.7 49.3 95.2 49.1 94.3 49.8 93.6 48.9 93.4 48.5 92.6"/>
      <polygon class="st9" points="48.5 87.2 48.1 88.1 47.2 88.2 47.9 88.8 47.7 89.7 48.5 89.3 49.3 89.7 49.1 88.8 49.7 88.2 48.9 88.1 48.5 87.2"/>
      <polygon class="st9" points="59.2 92.5 58.8 93.4 57.8 93.6 58.5 94.3 58.3 95.3 59.2 94.8 60 95.3 59.9 94.3 60.6 93.6 59.6 93.4 59.2 92.5"/>
      <polygon class="st9" points="43.1 92.6 42.7 93.5 41.9 93.6 42.5 94.2 42.3 95.2 43.1 94.7 43.9 95.2 43.7 94.2 44.4 93.6 43.5 93.5 43.1 92.6"/>
      <polygon class="st9" points="59.2 87.2 58.8 88 57.8 88.2 58.5 88.9 58.4 89.8 59.2 89.4 60 89.8 59.9 88.9 60.5 88.2 59.6 88 59.2 87.2"/>
      <polygon class="st9" points="64.5 81.6 64.1 82.6 63 82.8 63.8 83.6 63.6 84.7 64.5 84.1 65.5 84.7 65.3 83.6 66.1 82.8 65 82.6 64.5 81.6"/>
      <polygon class="st9" points="59.2 81.7 58.7 82.6 57.7 82.8 58.4 83.5 58.3 84.6 59.2 84.1 60.1 84.6 59.9 83.5 60.7 82.8 59.6 82.6 59.2 81.7"/>
      <polygon class="st9" points="59.2 76.3 58.7 77.3 57.7 77.5 58.4 78.3 58.2 79.4 59.2 78.8 60.1 79.4 59.9 78.3 60.7 77.5 59.7 77.3 59.2 76.3"/>
      <polygon class="st9" points="53.8 97.7 53.4 98.5 52.5 98.6 53.2 99.3 53 100.2 53.8 99.8 54.6 100.2 54.5 99.3 55.1 98.6 54.2 98.5 53.8 97.7"/>
      <circle class="st9" cx="69.9" cy="125.9" r="1.1"/>
      <circle class="st9" cx="59.2" cy="104.5" r="1.3"/>
      <circle class="st9" cx="64.5" cy="109.8" r="1.3"/>
      <circle class="st9" cx="64.5" cy="115.1" r="1.2"/>
      <circle class="st9" cx="69.9" cy="115.1" r="1.2"/>
      <circle class="st9" cx="69.9" cy="120.4" r="1.3"/>
      <circle class="st6" cx="69.9" cy="136.6" r="1.2"/>
      <circle class="st6" cx="75.3" cy="136.5" r="1.2"/>
      <circle class="st9" cx="69.9" cy="131.1" r="1.1"/>
      <g>
        <polygon class="st9" points="123.5 102.6 124.1 103.8 125.4 104 124.5 104.9 124.7 106.3 123.5 105.6 122.4 106.3 122.6 104.9 121.7 104 123 103.8 123.5 102.6"/>
        <polygon class="st9" points="134.2 102.5 134.8 103.8 136.1 104 135.2 105 135.4 106.4 134.2 105.7 133 106.4 133.2 105 132.3 104 133.6 103.8 134.2 102.5"/>
        <polygon class="st9" points="128.9 108 129.4 109.2 130.7 109.4 129.8 110.3 130 111.6 128.9 111 127.8 111.6 128 110.3 127.1 109.4 128.3 109.2 128.9 108"/>
        <polygon class="st9" points="128.9 113.3 129.4 114.4 130.6 114.6 129.8 115.5 130 116.8 128.9 116.2 127.8 116.8 128 115.5 127.1 114.6 128.3 114.4 128.9 113.3"/>
        <polygon class="st9" points="134.2 97 134.8 98.3 136.2 98.5 135.2 99.5 135.4 100.9 134.2 100.2 133 100.9 133.2 99.5 132.2 98.5 133.6 98.3 134.2 97"/>
        <polygon class="st9" points="134.2 91.9 134.8 93.2 136.2 93.4 135.2 94.4 135.4 95.9 134.2 95.2 133 95.9 133.2 94.4 132.2 93.4 133.6 93.2 134.2 91.9"/>
        <polygon class="st9" points="123.5 97.1 124.1 98.3 125.4 98.5 124.5 99.5 124.7 100.8 123.5 100.2 122.4 100.8 122.6 99.5 121.7 98.5 123 98.3 123.5 97.1"/>
        <polygon class="st9" points="139.6 97 140.2 98.3 141.6 98.5 140.6 99.5 140.8 101 139.6 100.3 138.3 101 138.6 99.5 137.6 98.5 139 98.3 139.6 97"/>
        <polygon class="st9" points="144.9 91.8 145.6 93.2 147 93.4 146 94.5 146.2 96 144.9 95.3 143.6 96 143.9 94.5 142.8 93.4 144.3 93.2 144.9 91.8"/>
      </g>
      <circle class="st4" cx="112.8" cy="125.9" r="1.6"/>
      <circle class="st4" cx="118.2" cy="125.9" r="1.6"/>
      <circle class="st4" cx="118.2" cy="120.3" r="1.7"/>
      <circle class="st4" cx="123.5" cy="120.3" r="1.8"/>
      <circle class="st4" cx="128.9" cy="120.3" r="1.8"/>
      <polygon class="st9" points="102.1 102.8 101.6 103.9 100.4 104.1 101.3 104.9 101.1 106.1 102.1 105.6 103.1 106.1 102.9 104.9 103.7 104.1 102.6 103.9 102.1 102.8"/>
      <polygon class="st9" points="91.3 102.9 90.9 104 89.8 104.1 90.6 104.9 90.4 106 91.3 105.5 92.3 106 92.1 104.9 92.9 104.1 91.8 104 91.3 102.9"/>
      <polygon class="st9" points="96.7 108.2 96.2 109.3 95.2 109.4 95.9 110.2 95.7 111.3 96.7 110.8 97.7 111.3 97.5 110.2 98.2 109.4 97.2 109.3 96.7 108.2"/>
      <polygon class="st9" points="102.1 97.3 101.6 98.4 100.4 98.6 101.2 99.4 101 100.6 102.1 100.1 103.1 100.6 102.9 99.4 103.8 98.6 102.6 98.4 102.1 97.3"/>
      <polygon class="st9" points="86 97.4 85.5 98.4 84.4 98.6 85.2 99.4 85 100.5 86 100 87 100.5 86.8 99.4 87.5 98.6 86.5 98.4 86 97.4"/>
      <polygon class="st9" points="80.6 92.3 80.1 93.4 79.1 93.5 79.8 94.3 79.7 95.5 80.6 94.9 81.6 95.5 81.4 94.3 82.2 93.5 81.1 93.4 80.6 92.3"/>
      <polygon class="st9" points="107.4 92.1 106.9 93.3 105.7 93.5 106.5 94.4 106.3 95.7 107.4 95.1 108.5 95.7 108.3 94.4 109.2 93.5 108 93.3 107.4 92.1"/>
      <polygon class="st9" points="107.4 86.8 106.9 87.9 105.7 88.1 106.6 89 106.4 90.2 107.4 89.6 108.5 90.2 108.3 89 109.2 88.1 108 87.9 107.4 86.8"/>
      <polygon class="st9" points="91.3 86.9 90.8 87.9 89.7 88.1 90.5 88.9 90.4 90.1 91.3 89.6 92.3 90.1 92.1 88.9 93 88.1 91.8 87.9 91.3 86.9"/>
      <circle class="st4" cx="96.7" cy="115.1" r="1.5"/>
      <circle class="st4" cx="96.7" cy="120.4" r="1.5"/>
      <polygon class="st9" points="107.4 81.3 106.9 82.5 105.6 82.7 106.5 83.7 106.3 85 107.4 84.4 108.6 85 108.4 83.7 109.3 82.7 108 82.5 107.4 81.3"/>
      <polygon class="st9" points="91.3 97.4 90.8 98.4 89.7 98.6 90.5 99.4 90.4 100.6 91.3 100 92.3 100.6 92.1 99.4 92.9 98.6 91.8 98.4 91.3 97.4"/>
      <polygon class="st9" points="91.3 92.2 90.8 93.3 89.7 93.5 90.5 94.3 90.3 95.5 91.3 95 92.4 95.5 92.2 94.3 93 93.5 91.9 93.3 91.3 92.2"/>
      <rect class="st8" x="105.9" y="129.7" width="3" height="3"/>
      <polygon class="st10" points="113.6 129.5 112 129.5 111.2 131.1 112 132.7 113.6 132.7 114.4 131.1 113.6 129.5"/>
      <rect class="st8" x="116.4" y="129.5" width="3.3" height="3.3"/>
      <polygon class="st10" points="124.3 129.4 122.7 129.4 121.8 131.1 122.7 132.7 124.3 132.7 125.2 131.1 124.3 129.4"/>
      <rect class="st8" x="95.3" y="129.8" width="2.8" height="2.8"/>
      <polygon class="st10" points="102.7 129.6 101.2 129.6 100.5 131.1 101.2 132.5 102.7 132.5 103.4 131.1 102.7 129.6"/>
      <polygon class="st10" points="81.2 129.8 80 129.8 79.4 131.1 80 132.3 81.2 132.3 81.8 131.1 81.2 129.8"/>
      <rect class="st8" x="84.7" y="129.9" width="2.6" height="2.6"/>
      <polygon class="st10" points="92 129.7 90.7 129.7 90 131.1 90.7 132.4 92 132.4 92.7 131.1 92 129.7"/>
      <rect class="st8" x="90" y="124.6" width="2.7" height="2.7"/>
      <polygon class="st10" points="97.4 124.5 96 124.5 95.3 125.9 96 127.3 97.4 127.3 98.1 125.9 97.4 124.5"/>
      <polygon class="st10" points="75.9 124.7 74.7 124.7 74.1 125.9 74.7 127.1 75.9 127.1 76.5 125.9 75.9 124.7"/>
      <rect class="st8" x="79.4" y="124.7" width="2.5" height="2.5"/>
      <polygon class="st10" points="86.6 124.6 85.3 124.6 84.7 125.9 85.3 127.2 86.6 127.2 87.3 125.9 86.6 124.6"/>
      <rect class="st8" x="127.2" y="129.3" width="3.4" height="3.4"/>
      <polygon class="st10" points="135.1 129.3 133.3 129.3 132.5 131 133.3 132.8 135.1 132.8 136 131 135.1 129.3"/>
      <circle class="st6" cx="134.2" cy="77.5" r="2.3"/>
      <circle class="st6" cx="134.2" cy="83.1" r="2.1"/>
      <circle class="st6" cx="144.9" cy="83.1" r="2.2"/>
      <circle class="st6" cx="123.5" cy="88.5" r="1.9"/>
      <circle class="st6" cx="134.2" cy="88.5" r="2"/>
      <circle class="st6" cx="144.9" cy="88.5" r="2.1"/>
      <circle class="st6" cx="123.5" cy="93.9" r="1.9"/>
      <g>
        <circle class="st6" cx="91.4" cy="61.7" r="2"/>
        <circle class="st6" cx="107.5" cy="61.7" r="2.2"/>
      </g>
      <g>
        <circle class="st6" cx="91.4" cy="67" r="2"/>
        <circle class="st6" cx="107.5" cy="67.1" r="2.1"/>
      </g>
      <g>
        <circle class="st6" cx="91.4" cy="72.4" r="1.9"/>
        <circle class="st6" cx="107.5" cy="72.4" r="2"/>
      </g>
      <g>
        <circle class="st6" cx="91.4" cy="77.8" r="1.8"/>
        <circle class="st6" cx="107.5" cy="77.8" r="1.9"/>
      </g>
      <circle class="st6" cx="91.4" cy="56.3" r="2.1"/>
      <circle class="st6" cx="91.3" cy="83.1" r="1.7"/>
    </g>
  </g>
  <g id="Grey" class="st13">
    <rect class="st11" x="31.8" y="17" width="130.5" height="158.9"/>
    <text class="st12" transform="translate(49.8 104.1)"><tspan x="0" y="0">Diagnostics</tspan></text>
  </g>
  <g id="TB">
    <text class="st0" transform="translate(35.8 39.2)"><tspan x="0" y="0">GLYCOBIO</tspan></text>
    <g>
      <text class="st2" transform="translate(27.6 160.7)"><tspan x="0" y="0">MOYNIHAN</tspan></text>
      <text class="st2" transform="translate(27.6 168.6)"><tspan x="0" y="0">LABORATORY</tspan></text>
      <text class="st3" transform="translate(28.2 173.8)"><tspan x="0" y="0">Est. 2019</tspan></text>
    </g>
    <text class="st1" transform="translate(134.9 175.2)"><tspan x="0" y="0">TB</tspan></text>
  </g>
</svg>